PathFileType	4	(X/Y/Z)	C:\Users\Basilio\Documents\Thesis Gigler\squatting_fais\c3dfiles\039\SLS_pre_front4\markers_experimental.trc
DataRate	CameraRate	NumFrames	NumMarkers	Units	OrigDataRate	OrigDataStartFrame	OrigNumFrames
200.000000	200.000000	4	63	mm	200.000000	1249	1999
Frame#	Time	FHD			LBHD			RBHD			C7			T10			CLAV			LSHO			LUUPA			LMUPA			LDUPA			LLEP			LMEP			LRAD			LUL			LRFIN			RSHO			RUPA1			RMUPA			RDUPA			RLEP			RMEP			RRAD			RUL			RUFIN			LASI			RASI			USACR			LSACR			RSACR			LTHI1			LTHI2			LTHI3			LTHI4			LLFC			LMFC			LTIB1			LTIB2			LTIB3			LTIB4			LLMAL			LMMAL			LHEE			LMT1			LMT2			LMT5			RTHI			RTHI2			RTHI3			RTHI4			RLFC			RMFC			RTIB1			RTIB2			RTIB3			RTIB4			RLMAL			RMMAL			RHEE			RMT1			RMT2			RMT5			*61			*62			
		X1	Y1	Z1	X2	Y2	Z2	X3	Y3	Z3	X4	Y4	Z4	X5	Y5	Z5	X6	Y6	Z6	X7	Y7	Z7	X8	Y8	Z8	X9	Y9	Z9	X10	Y10	Z10	X11	Y11	Z11	X12	Y12	Z12	X13	Y13	Z13	X14	Y14	Z14	X15	Y15	Z15	X16	Y16	Z16	X17	Y17	Z17	X18	Y18	Z18	X19	Y19	Z19	X20	Y20	Z20	X21	Y21	Z21	X22	Y22	Z22	X23	Y23	Z23	X24	Y24	Z24	X25	Y25	Z25	X26	Y26	Z26	X27	Y27	Z27	X28	Y28	Z28	X29	Y29	Z29	X30	Y30	Z30	X31	Y31	Z31	X32	Y32	Z32	X33	Y33	Z33	X34	Y34	Z34	X35	Y35	Z35	X36	Y36	Z36	X37	Y37	Z37	X38	Y38	Z38	X39	Y39	Z39	X40	Y40	Z40	X41	Y41	Z41	X42	Y42	Z42	X43	Y43	Z43	X44	Y44	Z44	X45	Y45	Z45	X46	Y46	Z46	X47	Y47	Z47	X48	Y48	Z48	X49	Y49	Z49	X50	Y50	Z50	X51	Y51	Z51	X52	Y52	Z52	X53	Y53	Z53	X54	Y54	Z54	X55	Y55	Z55	X56	Y56	Z56	X57	Y57	Z57	X58	Y58	Z58	X59	Y59	Z59	X60	Y60	Z60	X61	Y61	Z61	X62	Y62	Z62	X63	Y63	Z63	

1250	6.245	-296.4815368652344	1552.15966796875	-612.7153930664064	-462.5232543945314	1525.165649414063	-724.3698730468751	-426.1970520019532	1527.827514648438	-588.3196411132814	-496.8382568359376	1367.085205078125	-673.7382812500001	-565.1118774414064	1075.539794921875	-723.5438232421876	nan	nan	nan	-417.8963623046876	1387.150390625	-835.5622558593752	-259.0317077636719	1365.127563476563	-959.288024902344	-234.6877441406251	1395.336059570313	-927.1215820312502	-190.1938629150391	1376.293823242188	-962.4875488281252	-123.9721603393555	1386.521728515625	-960.5906372070315	-115.1652984619141	1313.900756835938	-933.5209960937502	159.6795959472657	1423.044189453125	-899.069763183594	153.1757354736328	1429.919677734375	-974.5731201171877	239.8334960937501	1460.605346679688	-899.192077636719	-377.4393005371094	1366.969360351563	-525.6222534179689	-204.7412414550782	1310.098510742188	-447.1085815429689	-183.5233154296875	1347.220092773438	-473.7630310058595	-137.3117065429688	1311.779052734375	-456.6221923828126	-76.7546844482422	1330.349731445313	-471.8450927734376	-70.4811248779297	1265.81201171875	-515.5842285156251	200.3506622314454	1399.017211914063	-571.7741699218751	206.8227539062501	1385.569946289063	-496.7546691894532	285.5871582031251	1437.68701171875	-568.6652832031251	-423.905975341797	911.3152465820315	-851.2550048828127	-421.918182373047	898.596862792969	-625.1284790039064	-606.3080444335939	927.636169433594	-733.3327636718751	-608.0673217773439	895.7276000976565	-761.7949218750001	-610.0308837890626	894.5574951171877	-704.0524902343751	-282.9259643554688	729.3296508789064	-933.0205078125002	-198.1766967773438	724.4345092773439	-929.581481933594	-179.6295776367188	766.2644042968751	-915.6135253906252	-163.8850708007813	673.9581909179689	-920.6924438476565	-54.04907989501955	621.8755493164064	-920.5002441406252	-16.95542716979981	625.8494262695314	-807.2944335937502	105.2653350830078	595.4357910156251	-900.1572265625002	106.8323364257813	521.3976440429689	-945.4969482421877	133.259506225586	553.9580688476564	-929.4741821289065	202.2571105957032	511.4154663085939	-894.2261352539065	314.4660644531251	376.7271423339844	-936.8031005859377	332.0165710449219	386.5619506835939	-851.938171386719	338.6872863769532	286.3540039062501	-900.2158813476565	448.1172180175782	492.631072998047	-892.7252197265627	436.2076721191407	491.601287841797	-931.492858886719	420.8567199707032	448.488494873047	-987.0430297851565	-312.0371093750001	660.8143310546876	-564.2423095703126	-246.8300781250001	645.6651611328126	-561.1629638671876	-223.9855194091797	669.1047363281251	-566.4998779296876	-215.5325012207032	567.0508422851564	-572.8571777343751	-174.8469696044922	461.9346923828126	-611.8714599609376	-144.9455261230469	474.6334228515626	-719.0488891601564	-210.3069915771485	274.7670898437501	-671.9362182617189	-314.1823120117188	247.6170806884766	-667.8250122070314	-274.9112548828126	223.2667236328126	-677.3848266601564	-278.9563598632813	179.0454711914063	-718.8536376953126	-378.0649108886719	117.6173629760742	-712.2044677734376	-343.9750366210938	143.2965393066407	-792.5696411132815	-453.2703552246095	105.9685287475586	-769.8258056640627	-229.1860809326172	56.01821517944337	-779.7246704101565	-233.5510711669922	56.46504974365236	-733.7418212890626	-290.4407348632813	39.23184204101563	-684.0820312500001	nan	nan	nan	nan	nan	nan	
1251	6.25	-296.5356445312501	1552.077270507813	-612.8170166015626	-462.644012451172	1524.933837890625	-724.2481689453126	-426.2606201171876	1527.750854492188	-588.3830566406251	-497.0300292968751	1366.937866210938	-673.6778564453126	-565.3164062500001	1075.452514648438	-723.5580444335939	nan	nan	nan	-417.3220520019532	1386.851684570313	-835.1870727539065	-259.2508850097657	1364.887329101563	-959.3059082031252	-234.7882995605469	1395.082153320313	-927.2239379882815	-190.4035339355469	1375.959838867188	-962.4645996093752	-124.1764297485352	1386.287719726563	-960.6839599609377	-115.4803009033203	1314.131591796875	-932.653991699219	159.4834899902344	1422.610107421875	-899.1763916015627	153.0172119140625	1429.543090820313	-974.580749511719	239.6461944580079	1460.231811523438	-899.2502441406252	-377.6941833496094	1366.869018554688	-525.5811157226564	-204.9347839355469	1310.014038085938	-447.0303039550782	-183.6964874267578	1347.100830078125	-473.734100341797	-137.4861907958985	1311.63671875	-456.5966186523439	-76.9136428833008	1330.214111328125	-471.728973388672	-70.6960906982422	1265.67236328125	-515.5731811523439	200.1192321777344	1398.71435546875	-571.6228027343751	206.699691772461	1385.362548828125	-496.6693420410157	285.4755554199219	1437.354614257813	-568.4824218750001	-424.2793884277345	911.1867675781252	-851.259948730469	-422.2052307128907	898.4995117187502	-625.2302246093751	-606.4847412109376	927.4427490234377	-733.3750610351564	-608.3628540039064	895.5877075195315	-761.8294067382814	-610.2365112304689	894.295104980469	-704.0357666015626	-283.2091674804688	729.2599487304689	-933.0184326171877	-198.5089416503907	724.3123779296876	-929.537048339844	-179.8843841552735	766.1986694335939	-915.5840454101565	-164.1668548583985	673.8610839843751	-920.6375122070315	-54.11986160278322	621.7853393554689	-920.3607177734377	-17.37065696716309	625.8779296875001	-807.1092529296877	104.9294204711914	595.3650512695314	-899.9212036132815	106.5657730102539	521.2312011718751	-945.1790161132815	133.0873413085938	553.5725097656251	-929.326599121094	202.0487518310547	511.4067993164064	-894.061706542969	314.2534790039063	376.8368225097657	-936.392761230469	331.7565917968751	386.6577148437501	-851.5314941406252	338.4545288085938	286.3006896972657	-899.6573486328127	447.9471435546876	492.721405029297	-892.233825683594	435.9032592773439	491.6885070800782	-930.8153076171877	420.7531127929689	448.5824584960939	-986.5074462890627	-312.1663208007813	660.7800292968751	-564.3286743164064	-247.0050964355469	645.8862915039064	-561.4071655273439	-224.1500854492188	669.1042480468751	-566.6500854492189	-215.6146545410157	567.0345458984376	-572.9185791015626	-174.8594665527344	461.985321044922	-611.9703369140626	-145.00732421875	474.7055969238282	-719.1049194335939	-210.3927307128907	274.8832702636719	-672.0128784179689	-314.2015991210938	247.6144561767579	-667.8432617187501	-274.9527587890626	223.3429412841797	-677.3736572265626	-278.9801635742188	179.15478515625	-718.8195800781251	-378.0850219726563	117.6469497680664	-712.1909179687501	-343.9939575195313	143.2818756103516	-792.5310058593752	-453.2400817871095	105.9540023803711	-769.8032226562502	-229.1292114257813	56.05443954467775	-779.683776855469	-233.5577697753907	56.45943450927736	-733.7443847656251	-290.4438781738282	39.22616577148438	-684.0596313476564	nan	nan	nan	nan	nan	nan	
1252	6.255	-296.6612243652344	1551.88134765625	-613.0454101562501	-462.8706970214845	1524.78515625	-724.2098388671876	-426.3716125488282	1527.829833984375	-588.3726806640626	-497.0989685058595	1366.725219726563	-673.6538696289064	-565.5433959960939	1075.396850585938	-723.6113891601564	nan	nan	nan	-417.7855529785157	1386.756713867188	-835.294860839844	-259.3832702636719	1364.5302734375	-959.494812011719	-234.953109741211	1394.912719726563	-927.263610839844	-190.5619201660157	1375.696044921875	-962.5896606445315	-124.3886184692383	1386.15869140625	-960.8457031250002	-115.637939453125	1313.9111328125	-932.6103515625002	159.4687652587891	1422.14111328125	-899.215759277344	152.9366149902344	1429.141357421875	-974.5924072265627	239.5117492675782	1459.805786132813	-899.378845214844	-377.8454589843751	1366.672485351563	-525.5356445312501	-205.1587829589844	1309.865966796875	-446.9544677734376	-183.5789489746094	1347.176513671875	-473.5121154785157	-137.6357879638672	1311.234619140625	-456.470916748047	-77.00182342529298	1330.017700195313	-471.8944702148439	-70.84474182128908	1265.570068359375	-515.5781250000001	199.9482879638672	1398.543701171875	-571.4223022460939	206.5809478759766	1385.1142578125	-496.5948791503907	285.4071655273438	1437.055419921875	-568.2220458984376	-424.6097412109376	911.135925292969	-851.334411621094	-422.4814758300782	898.2607421875002	-625.3184204101564	-606.7636718750001	927.285827636719	-733.3564453125001	-608.7107543945314	895.5010375976565	-761.8406372070314	-610.5798950195314	894.1206054687502	-704.1176147460939	-283.4660034179688	729.0830688476564	-933.014831542969	-198.7590484619141	724.2260742187501	-929.4575195312502	-180.1080017089844	766.0875244140626	-915.5524902343752	-164.3192749023438	673.8247680664064	-920.5957031250002	-54.27653121948244	621.7625732421876	-920.3206176757815	-17.73136138916016	625.8508300781251	-806.9602661132815	104.6957168579102	595.3011474609376	-899.684020996094	106.2871475219727	521.1764526367189	-944.931823730469	132.8690032958985	553.5139770507814	-928.9975585937502	201.9271545410157	511.6943359375001	-893.6606445312502	314.1171264648438	376.9363708496094	-935.9685668945315	331.6221313476563	386.6595153808595	-851.224548339844	338.3700561523438	286.3339538574219	-899.2131958007815	447.6001586914064	492.7590942382814	-891.7149658203127	435.7518310546876	491.7861328125001	-930.3274536132815	420.5863037109376	448.5650329589845	-986.1226196289065	-312.4128723144532	660.7563476562501	-564.3901977539064	-247.1763000488282	645.9540405273439	-561.4432373046876	-224.3139190673829	669.2070922851564	-566.7965087890626	-215.7774047851563	567.0327758789064	-572.9339599609376	-174.9149627685547	462.105438232422	-612.0152587890626	-145.129135131836	474.7549743652345	-719.1120605468751	-210.4244689941407	274.9736328125001	-672.0025024414064	-314.2662048339844	247.7219543457032	-667.8673095703126	-274.9482116699219	223.4183502197266	-677.3507080078126	-279.0546264648438	179.2453765869141	-718.8103027343751	-378.0633850097657	117.6275863647461	-712.1860351562501	-343.9892578125001	143.3166961669922	-792.4440917968752	-453.2507934570314	105.966064453125	-769.7930297851565	-229.1349334716797	56.06390762329103	-779.6699218750002	-233.5567626953126	56.49606323242189	-733.6980590820314	-290.4162292480469	39.23339080810548	-684.0406494140626	nan	nan	nan	nan	nan	nan	
1253	6.26	-296.6667480468751	1551.72607421875	-613.2732543945314	-462.9554443359376	1524.7001953125	-724.2391357421876	-426.4267578125001	1527.693237304688	-588.3475952148439	-497.1812438964845	1366.560668945313	-673.6117553710939	-565.7324218750001	1075.2685546875	-723.6770019531251	nan	nan	nan	-417.9350585937501	1386.63427734375	-835.2400512695315	-259.5520019531251	1364.34619140625	-959.4315185546877	-235.0996246337891	1394.751342773438	-927.309753417969	-190.6985015869141	1375.4833984375	-962.5721435546877	-124.4844360351563	1385.883422851563	-960.8284301757815	-115.7331161499024	1313.268798828125	-933.3847656250002	159.2812194824219	1421.7734375	-899.2649536132815	152.768798828125	1428.78759765625	-974.6723632812502	239.374740600586	1459.384521484375	-899.487243652344	-378.0403747558594	1366.504028320313	-525.5228881835939	-205.2747039794922	1309.702026367188	-446.901092529297	-183.6962127685547	1347.015014648438	-473.5156860351564	-137.8367462158203	1311.090698242188	-456.4475708007814	-77.19007110595705	1329.86669921875	-471.8382873535157	-71.04453277587892	1265.537353515625	-515.6185302734376	199.8593444824219	1398.355590820313	-571.2336425781251	206.4910888671876	1384.818481445313	-496.5062866210939	285.3312072753907	1436.833129882813	-567.9260253906251	-424.8907470703126	910.9946289062502	-851.3677368164065	-422.8099670410157	898.1301879882815	-625.4227294921876	-607.0080566406251	927.1815185546877	-733.3941040039064	-608.9361572265626	895.3435668945315	-761.9099121093751	-610.8411254882814	893.8330688476565	-704.2989501953126	-283.7250671386719	728.8923950195314	-932.924011230469	-198.9620666503907	724.0670166015626	-929.4412231445315	-180.3104095458985	766.0249023437501	-915.585388183594	-164.61376953125	673.6639404296876	-920.5148925781252	-54.60684967041017	621.6513671875001	-920.2466430664065	-17.99382019042969	625.7897338867189	-806.855651855469	104.4368591308594	595.4498901367189	-899.4583129882815	106.1932601928711	521.1549072265626	-945.0577392578127	132.741195678711	553.5061035156251	-928.7290039062502	201.7169342041016	511.3899230957032	-893.5053710937502	313.8866577148438	377.1967773437501	-935.761657714844	331.4757995605469	386.6860961914064	-850.9171142578127	338.2416992187501	286.4377441406251	-898.8179931640627	447.2322082519532	493.000213623047	-891.3868408203127	435.5260314941407	491.8733520507814	-930.0299072265627	420.4263916015626	448.7334289550782	-985.6646118164065	-312.6552734375001	660.7619628906251	-564.3594360351564	-247.3470306396485	646.0108642578126	-561.5223388671876	-224.4894714355469	669.2319335937501	-566.8746948242189	-216.0102844238282	567.1657714843751	-572.9594726562501	-174.9674377441407	462.2044372558595	-612.0050048828126	-145.2082977294922	474.8313293457032	-719.0781250000001	-210.5038299560547	275.0170593261719	-672.0145874023439	-314.3056640625001	247.7392578125001	-667.8593750000001	-275.0208129882813	223.468246459961	-677.3360595703126	-279.0746765136719	179.2718658447266	-718.7311401367189	-378.0627441406251	117.6378860473633	-712.1236572265626	-344.0310058593751	143.346176147461	-792.3989868164065	-453.3058471679689	105.9396896362305	-769.7905273437502	-229.1170043945313	56.13452148437501	-779.671813964844	-233.5288085937501	56.49895477294923	-733.7324829101564	-290.3800659179688	39.32427215576173	-684.0473632812501	nan	nan	nan	nan	nan	nan	
